# xmcd
#
# Track frame offsets:
#	150
#	11011
#	20516
#	35003
#	48329
#	60222
#	72409
#	84519
#	100202
#	112620
#	122798
#
# Disc length: 1758 seconds
#
# Revision: 1
# Processed by: cddbd v1.5.2PL0 Copyright (c) Steve Scherf et al.
# Submitted via: audiograbber 1.83.01
#
DISCID=8406dc0b
DTITLE=country gospel - best of
DYEAR=1900
DGENRE=
TTITLE0=will the circle be unbroken-george jones
TTITLE1=i heard my saviour call-kitty wells
TTITLE2=peace in the valley-red foley
TTITLE3=how great art thou-loretta lynn
TTITLE4=blessed be-the statler brothers
TTITLE5=lord protect my soul-bill monroe
TTITLE6=i saw the light-ernest tubb
TTITLE7=tell it to jesus-willie nelson
TTITLE8=who will pray for me-conway twitty
TTITLE9=just a little talk with jesus-the standley brothers/the clinch mountain
TTITLE9=boys
TTITLE10=shall we gather at the river-tennessee ernie ford
EXTD=
EXTT0=
EXTT1=
EXTT2=
EXTT3=
EXTT4=
EXTT5=
EXTT6=
EXTT7=
EXTT8=
EXTT9=
EXTT10=
PLAYORDER=
